<svg width="2000" height="2000" viewBox="0 0 2000 2000" fill="none" xmlns="http://www.w3.org/2000/svg">
<path d="M1916.67 125H583.332C561.231 125 540.035 133.78 524.408 149.408C508.78 165.035 500 186.231 500 208.332V562.5L1250 781.25L2000 562.5V208.332C2000 186.231 1991.22 165.035 1975.59 149.408C1959.96 133.78 1938.77 125 1916.67 125V125Z" fill="#41A5EE"/>
<path d="M2000 562.5H500V1000L1250 1218.75L2000 1000V562.5Z" fill="#2B7CD3"/>
<path d="M2000 1000H500V1437.5L1250 1656.25L2000 1437.5V1000Z" fill="#185ABD"/>
<path d="M2000 1437.5H500V1791.67C500 1813.77 508.779 1834.96 524.407 1850.59C540.035 1866.22 561.23 1875 583.331 1875H1916.67C1938.77 1875 1959.96 1866.22 1975.59 1850.59C1991.22 1834.96 2000 1813.77 2000 1791.67V1437.5Z" fill="#103F91"/>
<path opacity="0.1" d="M1041.66 437.5H500V1625H1041.66C1063.75 1624.93 1084.91 1616.13 1100.52 1600.52C1116.13 1584.91 1124.93 1563.75 1125 1541.66V520.832C1124.93 498.75 1116.13 477.592 1100.52 461.978C1084.9 446.364 1063.75 437.564 1041.66 437.5V437.5Z" fill="black"/>
<path opacity="0.2" d="M979.164 500H500V1687.5H979.164C1001.25 1687.43 1022.41 1678.63 1038.02 1663.02C1053.63 1647.41 1062.43 1626.25 1062.5 1604.16V583.332C1062.43 561.25 1053.63 540.092 1038.02 524.478C1022.4 508.864 1001.25 500.064 979.164 500Z" fill="black"/>
<path opacity="0.2" d="M979.164 500H500V1562.5H979.164C1001.25 1562.43 1022.41 1553.63 1038.02 1538.02C1053.63 1522.41 1062.43 1501.25 1062.5 1479.16V583.332C1062.43 561.25 1053.63 540.092 1038.02 524.478C1022.4 508.864 1001.25 500.064 979.164 500Z" fill="black"/>
<path opacity="0.2" d="M916.664 500H500V1562.5H916.664C938.746 1562.43 959.905 1553.63 975.52 1538.02C991.134 1522.41 999.935 1501.25 1000 1479.16V583.332C999.935 561.25 991.134 540.092 975.519 524.478C959.905 508.864 938.746 500.064 916.664 500V500Z" fill="black"/>
<path d="M916.669 500H83.3331C37.3095 500 0 537.31 0 583.333V1416.67C0 1462.69 37.3095 1500 83.3331 1500H916.669C962.692 1500 1000 1462.69 1000 1416.67V583.333C1000 537.31 962.692 500 916.669 500Z" fill="#185ABD"/>
<path d="M746.863 1312.5H634.363L503.113 881.25L365.613 1312.5H253.113L128.113 687.5H240.613L328.113 1125L459.363 700H553.113L678.113 1125L765.613 687.5H871.863L746.863 1312.5Z" fill="white"/>
</svg>
